<svg width="28" height="28" viewBox="0 0 28 28" fill="none" xmlns="http://www.w3.org/2000/svg">
<g clip-path="url(#clip0_2_128)">
<path d="M16.114 0.711663C15.9756 0.599225 15.7934 0.556241 15.6194 0.595014L0.452729 4.09501C0.185799 4.15637 -0.00254432 4.39514 2.59878e-05 4.66901V24.5024C0.000135363 24.7902 0.21019 25.035 0.494674 25.0787L15.6613 27.4121C15.9798 27.461 16.2776 27.2426 16.3265 26.9242C16.331 26.8949 16.3333 26.8654 16.3333 26.8358V1.16901C16.3339 0.991116 16.2531 0.822733 16.114 0.711663Z" fill="#4CAF50"/>
<path d="M27.4168 25.0856H15.7501C15.4279 25.0856 15.1667 24.8244 15.1667 24.5022C15.1667 24.1801 15.4279 23.9189 15.7501 23.9189H26.8334V4.08559H15.7501C15.4279 4.08559 15.1667 3.82441 15.1667 3.50224C15.1667 3.18008 15.4279 2.91895 15.7501 2.91895H27.4167C27.7389 2.91895 28.0001 3.18013 28.0001 3.5023V24.5023C28.0001 24.8245 27.739 25.0856 27.4168 25.0856Z" fill="#4CAF50"/>
<path d="M11.0835 19.2529C10.8824 19.2529 10.6954 19.1493 10.5889 18.9787L4.7555 9.64539C4.57618 9.37775 4.64782 9.01539 4.91546 8.83607C5.1831 8.65675 5.54546 8.72839 5.72478 8.99603C5.73184 9.00653 5.73851 9.01725 5.74485 9.02819L11.5782 18.3615C11.7483 18.6351 11.6644 18.9948 11.3908 19.165C11.2985 19.2223 11.1921 19.2527 11.0835 19.2529Z" fill="#FAFAFA"/>
<path d="M5.25012 19.2521C4.92795 19.2515 4.66731 18.9898 4.66797 18.6676C4.66819 18.5587 4.69892 18.452 4.75662 18.3596L10.59 9.02628C10.7515 8.74753 11.1085 8.65254 11.3871 8.81409C11.6659 8.97563 11.7609 9.33258 11.5993 9.61127C11.593 9.6222 11.5863 9.63292 11.5793 9.64342L5.74597 18.9768C5.63944 19.1481 5.45192 19.2523 5.25012 19.2521Z" fill="#FAFAFA"/>
<path d="M20.4168 25.0856C20.0947 25.0856 19.8335 24.8245 19.8335 24.5023V3.5023C19.8335 3.18013 20.0947 2.91895 20.4168 2.91895C20.739 2.91895 21.0002 3.18013 21.0002 3.5023V24.5023C21.0001 24.8245 20.739 25.0856 20.4168 25.0856Z" fill="#4CAF50"/>
<path d="M27.4168 21.5856H15.7501C15.4279 21.5856 15.1667 21.3245 15.1667 21.0023C15.1667 20.6801 15.4279 20.4189 15.7501 20.4189H27.4167C27.7389 20.4189 28.0001 20.6801 28.0001 21.0023C28.0001 21.3245 27.739 21.5856 27.4168 21.5856Z" fill="#4CAF50"/>
<path d="M27.4168 18.0856H15.7501C15.4279 18.0856 15.1667 17.8245 15.1667 17.5023C15.1667 17.1801 15.4279 16.9189 15.7501 16.9189H27.4167C27.7389 16.9189 28.0001 17.1801 28.0001 17.5023C28.0001 17.8245 27.739 18.0856 27.4168 18.0856Z" fill="#4CAF50"/>
<path d="M27.4168 14.5856H15.7501C15.4279 14.5856 15.1667 14.3245 15.1667 14.0023C15.1667 13.6801 15.4279 13.4189 15.7501 13.4189H27.4167C27.7389 13.4189 28.0001 13.6801 28.0001 14.0023C28.0001 14.3245 27.739 14.5856 27.4168 14.5856Z" fill="#4CAF50"/>
<path d="M27.4168 11.0856H15.7501C15.4279 11.0856 15.1667 10.8245 15.1667 10.5023C15.1667 10.1801 15.4279 9.91895 15.7501 9.91895H27.4167C27.7389 9.91895 28.0001 10.1801 28.0001 10.5023C28.0001 10.8245 27.739 11.0856 27.4168 11.0856Z" fill="#4CAF50"/>
<path d="M27.4168 7.58564H15.7501C15.4279 7.58564 15.1667 7.32446 15.1667 7.00229C15.1667 6.68013 15.4279 6.41895 15.7501 6.41895H27.4167C27.7389 6.41895 28.0001 6.68013 28.0001 7.00229C28.0001 7.32451 27.739 7.58564 27.4168 7.58564Z" fill="#4CAF50"/>
</g>
<defs>
<clipPath id="clip0_2_128">
<rect width="28" height="28" fill="white"/>
</clipPath>
</defs>
</svg>
