<svg width="27" height="23" viewBox="0 0 27 23" fill="none" xmlns="http://www.w3.org/2000/svg">
<g clip-path="url(#clip0_2_303)">
<path d="M7.49984 21.3332C7.96007 21.3332 8.33317 20.9601 8.33317 20.4998C8.33317 20.0396 7.96007 19.6665 7.49984 19.6665C7.0396 19.6665 6.6665 20.0396 6.6665 20.4998C6.6665 20.9601 7.0396 21.3332 7.49984 21.3332Z" stroke="#A0A4A8" stroke-width="2" stroke-linecap="round" stroke-linejoin="round"/>
<path d="M16.6668 21.3332C17.1271 21.3332 17.5002 20.9601 17.5002 20.4998C17.5002 20.0396 17.1271 19.6665 16.6668 19.6665C16.2066 19.6665 15.8335 20.0396 15.8335 20.4998C15.8335 20.9601 16.2066 21.3332 16.6668 21.3332Z" stroke="#A0A4A8" stroke-width="2" stroke-linecap="round" stroke-linejoin="round"/>
<path d="M0.833496 3.8335H4.16683L6.40016 14.9918C6.47637 15.3755 6.68509 15.7201 6.98978 15.9654C7.29448 16.2107 7.67574 16.341 8.06683 16.3335H16.1668C16.5579 16.341 16.9392 16.2107 17.2439 15.9654C17.5486 15.7201 17.7573 15.3755 17.8335 14.9918L19.1668 8.00016H5.00016" stroke="#A0A4A8" stroke-width="2" stroke-linecap="round" stroke-linejoin="round"/>
</g>
<defs>
<clipPath id="clip0_2_303">
<rect width="27" height="23" fill="white"/>
</clipPath>
</defs>
</svg>
