<svg width="27" height="23" viewBox="0 0 27 23" fill="none" xmlns="http://www.w3.org/2000/svg">
<path d="M17.3666 6.84172C16.941 6.41589 16.4356 6.0781 15.8794 5.84763C15.3232 5.61716 14.727 5.49854 14.1249 5.49854C13.5229 5.49854 12.9267 5.61716 12.3705 5.84763C11.8143 6.0781 11.3089 6.41589 10.8833 6.84172L9.99994 7.72506L9.1166 6.84172C8.25686 5.98198 7.0908 5.49898 5.87494 5.49898C4.65908 5.49898 3.49301 5.98198 2.63327 6.84172C1.77353 7.70147 1.29053 8.86753 1.29053 10.0834C1.29053 11.2993 1.77353 12.4653 2.63327 13.3251L3.5166 14.2084L9.99994 20.6917L16.4833 14.2084L17.3666 13.3251C17.7924 12.8994 18.1302 12.3941 18.3607 11.8379C18.5912 11.2816 18.7098 10.6855 18.7098 10.0834C18.7098 9.48132 18.5912 8.88514 18.3607 8.32893C18.1302 7.77271 17.7924 7.26735 17.3666 6.84172V6.84172Z" stroke="#A0A4A8" stroke-width="2" stroke-linecap="round" stroke-linejoin="round"/>
</svg>
